# xmcd
#
# Track frame offsets: 
#        300
#        19199
#        28692
#        43910
#        58084
#        76572
#        94048
#        105840
#        121853
#        136076
#
# Disc length: 2010 seconds
#
# Revision: 0
# Processed by: cddbd v1.5.1PL2 Copyright (c) Steve Scherf et al.
# Submitted via: ExactAudioCopy v0.95b3
#
DISCID=7107d60a
DTITLE=Hank Williams Jr - The Pressure Is On
DYEAR=1900
DGENRE=Country
TTITLE0=A Country Boy Can Survive
TTITLE1=The Coalition To Ban Coalitions
TTITLE2=Tennessee Stud
TTITLE3=Ramblin In My Shoes
TTITLE4=The Pressure Is On
TTITLE5=All My Rowdy Friends
TTITLE6=I Don't Care
TTITLE7=Weatherman
TTITLE8=Everytime I Hear That Song
TTITLE9=Ballad Of Hank Williams
EXTD=
EXTT0=
EXTT1=
EXTT2=
EXTT3=
EXTT4=
EXTT5=
EXTT6=
EXTT7=
EXTT8=
EXTT9=
PLAYORDER=
